<svg xmlns="http://www.w3.org/2000/svg" fill="none" viewBox="0 437.34000000000003 625.304347826087 528.36" style="max-height: 500px" width="625.304347826087" height="528.36">
<path fill="#FCE0AA" d="M456.292 248.665C536.192 324.617 605.332 412.807 585.435 487.349C566.056 561.928 457.64 622.858 393.372 706.715C328.587 790.536 307.431 897.246 252.151 928.155C196.834 959.581 106.874 915.169 12.3669 876.154C-81.5861 836.66 -180.568 802.008 -220.942 733.564C-261.278 664.603 -242.452 561.368 -219.855 456.321C-197.257 351.275 -170.851 243.899 -100.89 175.017C-30.9651 106.653 82.0339 76.2279 183.864 92.8723C285.694 109.517 376.392 172.713 456.292 248.665Z"/>
<path fill="#FFC85A" d="M371.1 271.37C448.18 334.82 516.33 410.02 503.17 478.64C490.48 547.26 396.48 609.3 343.84 689.2C290.73 769.1 278.51 866.86 230.57 898.35C182.63 930.31 98.5 896 10.61 866.86C-76.81 837.25 -168.46 812.34 -209.35 753.12C-250.24 693.43 -239.9 598.96 -226.27 502.61C-212.64 406.26 -195.72 307.56 -136.97 240.82C-78.22 174.55 21.89 139.77 114.95 148.23C208.01 156.69 294.02 207.92 371.1 271.37Z"/>
</svg>