<svg xmlns="http://www.w3.org/2000/svg" fill="none" viewBox="76.07449856733524 74.48 454.92550143266476 600.4" style="max-height: 500px" width="454.92550143266476" height="600.4">
<g clip-path="url(#clip0_134_732)">
<path fill="#FCE0AA" d="M828.292 248.665C908.192 324.617 977.332 412.807 957.435 487.349C938.056 561.928 829.64 622.858 765.372 706.715C700.587 790.536 679.431 897.246 624.151 928.155C568.834 959.581 478.874 915.169 384.367 876.155C290.414 836.66 191.432 802.008 151.058 733.564C110.721 664.603 129.547 561.368 152.145 456.321C174.743 351.275 201.149 243.899 271.11 175.017C341.035 106.653 454.034 76.228 555.864 92.8724C657.694 109.517 748.392 172.713 828.292 248.665Z"/>
</g>
<g clip-path="url(#clip1_134_732)">
<path fill="#FFC85A" d="M780.1 312.37C857.18 375.82 925.33 451.02 912.17 519.64C899.48 588.26 805.48 650.3 752.84 730.2C699.73 810.1 687.51 907.86 639.57 939.35C591.63 971.31 507.5 937 419.61 907.86C332.19 878.25 240.54 853.34 199.65 794.12C158.76 734.43 169.1 639.96 182.73 543.61C196.36 447.26 213.28 348.56 272.03 281.82C330.78 215.55 430.89 180.77 523.95 189.23C617.01 197.69 703.02 248.92 780.1 312.37Z"/>
</g>
<defs>
<clipPath id="clip0_134_732">
<rect transform="translate(50.0054) rotate(4.08862)" fill="white" height="687.654" width="1037.95"/>
</clipPath>
<clipPath id="clip1_134_732">
<rect transform="translate(61 138)" fill="white" height="560" width="940"/>
</clipPath>
</defs>
</svg>